<svg version="1.1" id="Layer_1" xmlns="http://www.w3.org/2000/svg" xmlns:xlink="http://www.w3.org/1999/xlink" x="0px" y="0px"
	 width="100%" viewBox="0 0 1024 1024" enable-background="new 0 0 1024 1024" xml:space="preserve">
<path fill="#000000" opacity="1.000000" stroke="none" 
	d="
M845.000000,1025.000000 
	C623.973145,1025.000000 402.946259,1025.000000 181.175842,1024.741699 
	C155.957718,1020.229492 139.013275,1001.089478 139.011841,977.458496 
	C138.993118,667.923096 138.993225,358.387665 139.010513,48.852272 
	C139.011734,27.029093 153.074615,8.795660 174.206436,2.849331 
	C175.538910,2.474382 176.738556,1.627386 178.000000,0.999999 
	C368.026855,1.000000 558.053711,1.000000 748.813965,1.263926 
	C768.456055,4.600259 780.966797,15.617373 788.310120,32.999638 
	C804.955872,32.999638 821.451477,32.994026 837.947021,33.000885 
	C866.309937,33.012676 886.999817,53.781067 886.999939,82.237968 
	C887.000732,281.728149 887.000305,481.218353 887.000305,680.708557 
	C887.000305,779.370361 886.997437,878.032166 887.003540,976.693970 
	C887.004395,990.793335 881.711975,1002.539978 871.508301,1012.200928 
	C864.013245,1019.297302 854.821594,1022.775757 845.000000,1025.000000 
M753.883362,411.498962 
	C753.883362,381.256744 753.883362,351.014557 753.883362,320.196167 
	C676.629333,320.196167 600.087402,320.196167 523.111816,320.196167 
	C523.111816,263.699432 523.111816,207.782623 523.111816,151.680573 
	C486.270630,151.680573 449.867432,151.680573 412.943054,151.680573 
	C412.943054,208.048187 412.943054,264.113464 412.943054,320.627197 
	C336.015381,320.627197 259.608704,320.627197 183.294647,320.627197 
	C183.294647,357.482208 183.294647,393.883667 183.294647,430.787201 
	C260.013611,430.787201 336.392395,430.787201 413.131042,430.787201 
	C413.131042,578.873230 413.131042,726.454956 413.131042,874.330078 
	C449.897064,874.330078 486.300720,874.330078 523.269592,874.330078 
	C523.269592,726.406067 523.269592,578.698669 523.269592,430.463562 
	C600.411621,430.463562 676.990479,430.463562 753.883362,430.463562 
	C753.883362,424.125854 753.883362,418.311981 753.883362,411.498962 
M782.442017,979.036011 
	C791.844299,979.402710 800.619385,977.230469 808.576721,972.207214 
	C824.794678,961.969116 831.704102,947.045105 831.696716,928.030090 
	C831.594116,665.202637 831.629700,402.375153 831.603882,139.547699 
	C831.603577,135.888351 831.417603,132.211273 831.032898,128.572647 
	C828.962646,108.989494 809.888855,90.091354 790.727112,89.019836 
	C790.727112,91.165482 790.727112,93.288399 790.727112,95.411308 
	C790.727112,361.905334 790.734131,628.399414 790.674988,894.893433 
	C790.673889,900.026611 790.547485,905.316101 789.363831,910.265869 
	C784.017029,932.624451 765.325745,947.019897 742.122864,947.021545 
	C561.960205,947.034180 381.797577,947.029358 201.634918,947.029907 
	C199.734741,947.029907 197.834549,947.029846 195.951599,947.029846 
	C195.951599,948.001160 195.877777,948.347717 195.966904,948.645508 
	C196.155411,949.275330 196.385864,949.900818 196.673935,950.491516 
	C205.674545,968.948853 220.253555,978.991150 240.970474,978.998535 
	C421.133087,979.062744 601.295715,979.036194 782.442017,979.036011 
z"/>
<path fill="#FFFFFF" opacity="1.000000" stroke="none" 
	d="
M845.468628,1025.000000 
	C854.821594,1022.775757 864.013245,1019.297302 871.508301,1012.200928 
	C881.711975,1002.539978 887.004395,990.793335 887.003540,976.693970 
	C886.997437,878.032166 887.000305,779.370361 887.000305,680.708557 
	C887.000305,481.218353 887.000732,281.728149 886.999939,82.237968 
	C886.999817,53.781067 866.309937,33.012676 837.947021,33.000885 
	C821.451477,32.994026 804.955872,32.999638 788.310120,32.999638 
	C780.966797,15.617373 768.456055,4.600259 749.273682,1.263926 
	C840.972778,1.000000 932.945557,1.000000 1024.942261,1.000000 
	C1024.942261,342.333344 1024.942261,683.666687 1024.942261,1025.000000 
	C965.235474,1025.000000 905.586365,1025.000000 845.468628,1025.000000 
z"/>
<path fill="#FFFFFF" opacity="1.000000" stroke="none" 
	d="
M177.531342,0.999999 
	C176.738556,1.627386 175.538910,2.474382 174.206436,2.849331 
	C153.074615,8.795660 139.011734,27.029093 139.010513,48.852272 
	C138.993225,358.387665 138.993118,667.923096 139.011841,977.458496 
	C139.013275,1001.089478 155.957718,1020.229492 180.716141,1024.741699 
	C121.019005,1025.000000 61.038010,1025.000000 1.058128,1025.000000 
	C1.059244,683.666687 1.059244,342.333313 1.059244,1.000000 
	C59.766552,1.000000 118.414619,1.000000 177.531342,0.999999 
z"/>
<path fill="#FED73A" opacity="1.000000" stroke="none" 
	d="
M753.883362,411.998535 
	C753.883362,418.311981 753.883362,424.125854 753.883362,430.463562 
	C676.990479,430.463562 600.411621,430.463562 523.269592,430.463562 
	C523.269592,578.698669 523.269592,726.406067 523.269592,874.330078 
	C486.300720,874.330078 449.897064,874.330078 413.131042,874.330078 
	C413.131042,726.454956 413.131042,578.873230 413.131042,430.787201 
	C336.392395,430.787201 260.013611,430.787201 183.294647,430.787201 
	C183.294647,393.883667 183.294647,357.482208 183.294647,320.627197 
	C259.608704,320.627197 336.015381,320.627197 412.943054,320.627197 
	C412.943054,264.113464 412.943054,208.048187 412.943054,151.680573 
	C449.867432,151.680573 486.270630,151.680573 523.111816,151.680573 
	C523.111816,207.782623 523.111816,263.699432 523.111816,320.196167 
	C600.087402,320.196167 676.629333,320.196167 753.883362,320.196167 
	C753.883362,351.014557 753.883362,381.256744 753.883362,411.998535 
z"/>
<path fill="#FDFDFD" opacity="1.000000" stroke="none" 
	d="
M781.950195,979.036316 
	C601.295715,979.036194 421.133087,979.062744 240.970474,978.998535 
	C220.253555,978.991150 205.674545,968.948853 196.673935,950.491516 
	C196.385864,949.900818 196.155411,949.275330 195.966904,948.645508 
	C195.877777,948.347717 195.951599,948.001160 195.951599,947.029846 
	C197.834549,947.029846 199.734741,947.029907 201.634918,947.029907 
	C381.797577,947.029358 561.960205,947.034180 742.122864,947.021545 
	C765.325745,947.019897 784.017029,932.624451 789.363831,910.265869 
	C790.547485,905.316101 790.673889,900.026611 790.674988,894.893433 
	C790.734131,628.399414 790.727112,361.905334 790.727112,95.411308 
	C790.727112,93.288399 790.727112,91.165482 790.727112,89.019836 
	C809.888855,90.091354 828.962646,108.989494 831.032898,128.572647 
	C831.417603,132.211273 831.603577,135.888351 831.603882,139.547699 
	C831.629700,402.375153 831.594116,665.202637 831.696716,928.030090 
	C831.704102,947.045105 824.794678,961.969116 808.576721,972.207214 
	C800.619385,977.230469 791.844299,979.402710 781.950195,979.036316 
z"/>
</svg>